# xmcd
#
# Track frame offsets: 
#        150
#        24234
#        42714
#        54688
#        76089
#        93223
#        113014
#        131127
#        158166
#        177145
#
# Disc length: 2559 seconds
#
# Revision: 2
# Processed by: cddbd v1.5.2PL0 Copyright (c) Steve Scherf et al.
# Submitted via: ExactAudioCopyFreeDBPlugin 1.0
#
DISCID=7609fd0a
DTITLE=COWBOY JUNKIES - The Wilderness
DYEAR=2012
DGENRE=Alternative
TTITLE0=Unanswered letter (for JB)
TTITLE1=Idle tales
TTITLE2=We are the selfish ones
TTITLE3=Angels in the wilderness
TTITLE4=Damaged from the start
TTITLE5=Fairytale
TTITLE6=Staring man
TTITLE7=The confession of Georgie E
TTITLE8=I let him in
TTITLE9=Fuck, I hate the cold
EXTD=
EXTT0=
EXTT1=
EXTT2=
EXTT3=
EXTT4=
EXTT5=
EXTT6=
EXTT7=
EXTT8=
EXTT9=
PLAYORDER=
